<?xml version="1.0" encoding="UTF-8" standalone="no"?>
<!-- Created with Inkscape (http://www.inkscape.org/) -->

<svg
   xmlns:ns0="http://www.iki.fi/pav/software/textext/"
   xmlns:dc="http://purl.org/dc/elements/1.1/"
   xmlns:cc="http://creativecommons.org/ns#"
   xmlns:rdf="http://www.w3.org/1999/02/22-rdf-syntax-ns#"
   xmlns:svg="http://www.w3.org/2000/svg"
   xmlns="http://www.w3.org/2000/svg"
   xmlns:xlink="http://www.w3.org/1999/xlink"
   xmlns:sodipodi="http://sodipodi.sourceforge.net/DTD/sodipodi-0.dtd"
   xmlns:inkscape="http://www.inkscape.org/namespaces/inkscape"
   width="210mm"
   height="297mm"
   id="svg2401"
   sodipodi:version="0.32"
   inkscape:version="0.91 r13725"
   sodipodi:docname="garde_pieds.svg"
   inkscape:output_extension="org.inkscape.output.svg.inkscape"
   version="1.1">
  <sodipodi:namedview
     id="base"
     pagecolor="#ffffff"
     bordercolor="#666666"
     borderopacity="1.0"
     inkscape:pageopacity="0.0"
     inkscape:pageshadow="2"
     inkscape:zoom="1.0844844"
     inkscape:cx="319.22307"
     inkscape:cy="860.51402"
     inkscape:document-units="px"
     inkscape:current-layer="layer1"
     showgrid="false"
     inkscape:window-width="1920"
     inkscape:window-height="997"
     inkscape:window-x="0"
     inkscape:window-y="25"
     inkscape:window-maximized="1"
     inkscape:object-paths="true"
     inkscape:snap-intersection-paths="true"
     inkscape:object-nodes="true"
     inkscape:snap-smooth-nodes="true"
     inkscape:snap-midpoints="true"
     inkscape:snap-nodes="true" />
  <defs
     id="defs2403">
    <marker
       inkscape:stockid="Arrow1Mend"
       orient="auto"
       refY="0.0"
       refX="0.0"
       id="Arrow1Mend"
       style="overflow:visible;"
       inkscape:isstock="true">
      <path
         id="path4169"
         d="M 0.0,0.0 L 5.0,-5.0 L -12.5,0.0 L 5.0,5.0 L 0.0,0.0 z "
         style="fill-rule:evenodd;stroke:#000000;stroke-width:1pt;stroke-opacity:1;fill:#000000;fill-opacity:1"
         transform="scale(0.4) rotate(180) translate(10,0)" />
    </marker>
    <inkscape:perspective
       sodipodi:type="inkscape:persp3d"
       inkscape:vp_x="0 : 526.18109 : 1"
       inkscape:vp_y="0 : 1000 : 0"
       inkscape:vp_z="744.09448 : 526.18109 : 1"
       inkscape:persp3d-origin="372.04724 : 350.78739 : 1"
       id="perspective2409" />
  </defs>
  <metadata
     id="metadata2406">
    <rdf:RDF>
      <cc:Work
         rdf:about="">
        <dc:format>image/svg+xml</dc:format>
        <dc:type
           rdf:resource="http://purl.org/dc/dcmitype/StillImage" />
      </cc:Work>
    </rdf:RDF>
  </metadata>
  <g
     inkscape:label="Calque 1"
     inkscape:groupmode="layer"
     id="layer1">
    <path
       inkscape:connector-curvature="0"
       id="path3336"
       d="M 175.68884,226.384 99.251624,149.94678"
       style="fill:none;fill-rule:evenodd;stroke:#000000;stroke-width:0.81804323;stroke-linecap:butt;stroke-linejoin:miter;stroke-miterlimit:4;stroke-dasharray:none;stroke-dashoffset:0;stroke-opacity:1" />
    <path
       style="fill:none;fill-rule:evenodd;stroke:#000000;stroke-width:0.81804323;stroke-linecap:butt;stroke-linejoin:miter;stroke-miterlimit:4;stroke-dasharray:none;stroke-opacity:1;marker-end:url(#Arrow1Mend)"
       d="m 175.68884,226.384 0,-148.038746"
       id="path3340"
       inkscape:connector-curvature="0" />
    <ellipse
       style="opacity:0.78125;fill:none;fill-opacity:1;stroke:#000000;stroke-width:1.36340535;stroke-miterlimit:4;stroke-dasharray:none;stroke-dashoffset:0;stroke-opacity:1"
       id="path3342"
       cx="189.19348"
       cy="107.96154"
       rx="10.22554"
       ry="30.67662" />
    <ellipse
       ry="30.67662"
       rx="10.22554"
       cy="247.01024"
       cx="-35.846889"
       id="ellipse3344"
       style="opacity:0.78125;fill:none;fill-opacity:1;stroke:#000000;stroke-width:1.36340535;stroke-miterlimit:4;stroke-dasharray:none;stroke-dashoffset:0;stroke-opacity:1"
       transform="matrix(0.70710678,-0.70710678,0.70710678,0.70710678,0,0)" />
    <path
       style="fill:none;fill-rule:evenodd;stroke:#000000;stroke-width:0.95438373;stroke-linecap:butt;stroke-linejoin:miter;stroke-miterlimit:4;stroke-dasharray:0.95438375, 2.86315126;stroke-dashoffset:0;stroke-opacity:1"
       d="m 137.47023,188.16539 c 1.07458,-26.11753 17.8494,-28.16134 38.21861,-24.69378"
       id="path4146"
       inkscape:connector-curvature="0"
       sodipodi:nodetypes="cc" />
    <g
       id="g4241"
       transform="matrix(1.3634054,0,0,1.3634054,-168.8112,-27.266206)"
       ns0:preamble="/home/harold/texmf/inkscape.tex"
       ns0:text="$\\ang{45}$">
      <defs
         id="defs4243">
        <g
           id="g4245">
          <symbol
             id="textext-788ac8dc-0"
             overflow="visible"
             style="overflow:visible">
            <path
               id="path4248"
               d=""
               style="stroke:none"
               inkscape:connector-curvature="0" />
          </symbol>
          <symbol
             id="textext-788ac8dc-1"
             overflow="visible"
             style="overflow:visible">
            <path
               id="path4251"
               d="m 4.6875,-1.640625 0,-0.3125 -0.984375,0 0,-4.53125 c 0,-0.203125 0,-0.265625 -0.171875,-0.265625 -0.078125,0 -0.109375,0 -0.1875,0.125 l -3.0625,4.671875 0,0.3125 2.65625,0 0,0.859375 c 0,0.359375 -0.03125,0.46875 -0.765625,0.46875 l -0.203125,0 0,0.3125 C 2.375,-0.03125 2.890625,-0.03125 3.3125,-0.03125 c 0.421875,0 0.9375,0 1.359375,0.03125 l 0,-0.3125 -0.21875,0 c -0.734375,0 -0.75,-0.109375 -0.75,-0.46875 l 0,-0.859375 z m -1.703125,-0.3125 -2.421875,0 2.421875,-3.71875 z m 0,0"
               style="stroke:none"
               inkscape:connector-curvature="0" />
          </symbol>
          <symbol
             id="textext-788ac8dc-2"
             overflow="visible"
             style="overflow:visible">
            <path
               id="path4254"
               d="m 4.46875,-2 c 0,-1.1875 -0.8125,-2.1875 -1.890625,-2.1875 -0.46875,0 -0.90625,0.15625 -1.265625,0.515625 l 0,-1.953125 c 0.203125,0.0625 0.53125,0.125 0.84375,0.125 1.234375,0 1.9375,-0.90625 1.9375,-1.03125 0,-0.0625 -0.03125,-0.109375 -0.109375,-0.109375 0,0 -0.03125,0 -0.078125,0.03125 C 3.703125,-6.515625 3.21875,-6.3125 2.546875,-6.3125 2.15625,-6.3125 1.6875,-6.390625 1.21875,-6.59375 1.140625,-6.625 1.109375,-6.625 1.109375,-6.625 1,-6.625 1,-6.546875 1,-6.390625 L 1,-3.4375 c 0,0.171875 0,0.25 0.140625,0.25 0.078125,0 0.09375,-0.015625 0.140625,-0.078125 C 1.390625,-3.421875 1.75,-3.96875 2.5625,-3.96875 c 0.515625,0 0.765625,0.453125 0.84375,0.640625 0.15625,0.375 0.1875,0.75 0.1875,1.25 0,0.359375 0,0.953125 -0.25,1.375 C 3.109375,-0.3125 2.734375,-0.0625 2.28125,-0.0625 c -0.71875,0 -1.296875,-0.53125 -1.46875,-1.109375 0.03125,0 0.0625,0.015625 0.171875,0.015625 0.328125,0 0.5,-0.25 0.5,-0.484375 0,-0.25 -0.171875,-0.5 -0.5,-0.5 C 0.84375,-2.140625 0.5,-2.0625 0.5,-1.609375 0.5,-0.75 1.1875,0.21875 2.296875,0.21875 3.453125,0.21875 4.46875,-0.734375 4.46875,-2 Z m 0,0"
               style="stroke:none"
               inkscape:connector-curvature="0" />
          </symbol>
          <symbol
             id="textext-788ac8dc-3"
             overflow="visible"
             style="overflow:visible">
            <path
               id="path4257"
               d="M 3.25,-5.421875 C 3.25,-6.1875 2.625,-6.8125 1.875,-6.8125 c -0.765625,0 -1.390625,0.625 -1.390625,1.390625 0,0.75 0.625,1.375 1.390625,1.375 0.75,0 1.375,-0.625 1.375,-1.375 z m -0.40625,0 c 0,0.53125 -0.4375,0.96875 -0.96875,0.96875 -0.546875,0 -0.984375,-0.4375 -0.984375,-0.96875 0,-0.546875 0.4375,-0.984375 0.984375,-0.984375 0.53125,0 0.96875,0.4375 0.96875,0.984375 z m 0,0"
               style="stroke:none"
               inkscape:connector-curvature="0" />
          </symbol>
        </g>
      </defs>
      <g
         id="textext-788ac8dc-4">
        <g
           id="g4260"
           style="fill:#000000;fill-opacity:1">
          <use
             id="use4262"
             y="134.765"
             x="223.43201"
             xlink:href="#textext-788ac8dc-1"
             width="100%"
             height="100%" />
          <use
             id="use4264"
             y="134.765"
             x="228.4133"
             xlink:href="#textext-788ac8dc-2"
             width="100%"
             height="100%" />
        </g>
        <g
           id="g4266"
           style="fill:#000000;fill-opacity:1">
          <use
             id="use4268"
             y="134.765"
             x="233.395"
             xlink:href="#textext-788ac8dc-3"
             width="100%"
             height="100%" />
        </g>
      </g>
    </g>
  </g>
</svg>
