<?xml version="1.0" encoding="UTF-8" standalone="no"?>
<!-- Created with Inkscape (http://www.inkscape.org/) -->

<svg
   xmlns:ns0="http://www.iki.fi/pav/software/textext/"
   xmlns:dc="http://purl.org/dc/elements/1.1/"
   xmlns:cc="http://creativecommons.org/ns#"
   xmlns:rdf="http://www.w3.org/1999/02/22-rdf-syntax-ns#"
   xmlns:svg="http://www.w3.org/2000/svg"
   xmlns="http://www.w3.org/2000/svg"
   xmlns:xlink="http://www.w3.org/1999/xlink"
   xmlns:sodipodi="http://sodipodi.sourceforge.net/DTD/sodipodi-0.dtd"
   xmlns:inkscape="http://www.inkscape.org/namespaces/inkscape"
   width="210mm"
   height="297mm"
   id="svg2401"
   sodipodi:version="0.32"
   inkscape:version="0.91 r13725"
   sodipodi:docname="prise_poignet_correct.svg"
   inkscape:output_extension="org.inkscape.output.svg.inkscape"
   version="1.1">
  <sodipodi:namedview
     id="base"
     pagecolor="#ffffff"
     bordercolor="#666666"
     borderopacity="1.0"
     inkscape:pageopacity="0.0"
     inkscape:pageshadow="2"
     inkscape:zoom="1.4"
     inkscape:cx="-19.09627"
     inkscape:cy="1035.594"
     inkscape:document-units="px"
     inkscape:current-layer="layer1"
     showgrid="false"
     inkscape:window-width="1920"
     inkscape:window-height="997"
     inkscape:window-x="0"
     inkscape:window-y="25"
     inkscape:window-maximized="1"
     inkscape:object-paths="true"
     inkscape:snap-intersection-paths="true"
     inkscape:snap-object-midpoints="true" />
  <defs
     id="defs2403">
    <inkscape:perspective
       sodipodi:type="inkscape:persp3d"
       inkscape:vp_x="0 : 526.18109 : 1"
       inkscape:vp_y="0 : 1000 : 0"
       inkscape:vp_z="744.09448 : 526.18109 : 1"
       inkscape:persp3d-origin="372.04724 : 350.78739 : 1"
       id="perspective2409" />
  </defs>
  <metadata
     id="metadata2406">
    <rdf:RDF>
      <cc:Work
         rdf:about="">
        <dc:format>image/svg+xml</dc:format>
        <dc:type
           rdf:resource="http://purl.org/dc/dcmitype/StillImage" />
      </cc:Work>
    </rdf:RDF>
  </metadata>
  <g
     inkscape:label="Calque 1"
     inkscape:groupmode="layer"
     id="layer1">
    <rect
       style="opacity:0.78125;fill:none;fill-opacity:1;stroke:#000000;stroke-width:1.04126513;stroke-miterlimit:4;stroke-dasharray:none;stroke-dashoffset:0;stroke-opacity:1"
       id="rect4144"
       width="66.171593"
       height="17.958735"
       x="91.428535"
       y="116.59322"
       ry="4.7259798" />
    <rect
       style="opacity:0.78125;fill:none;fill-opacity:1;stroke:#000000;stroke-width:1;stroke-miterlimit:4;stroke-dasharray:none;stroke-dashoffset:0;stroke-opacity:1"
       id="rect4146"
       width="5.0533781"
       height="85.907417"
       x="81.65345"
       y="53.237473"
       ry="2.5266891" />
    <path
       style="fill:none;fill-rule:evenodd;stroke:#000000;stroke-width:0.5;stroke-linecap:butt;stroke-linejoin:miter;stroke-miterlimit:4;stroke-dasharray:none;stroke-opacity:1;stroke-dashoffset:0"
       d="m 85.65345,126.29597 31.50743,0"
       id="path4148"
       inkscape:connector-curvature="0" />
    <path
       style="fill:none;fill-rule:evenodd;stroke:#000000;stroke-width:0.7;stroke-linecap:butt;stroke-linejoin:miter;stroke-miterlimit:4;stroke-dasharray:0.7,2.1;stroke-dashoffset:0;stroke-opacity:1"
       d="m 88.180134,106.62434 c 11.565722,-1.97384 20.750816,5.11039 20.500326,19.34103"
       id="path4150"
       inkscape:connector-curvature="0"
       sodipodi:nodetypes="cc" />
    <g
       id="g4245"
       transform="translate(-118.92857,-27.857142)"
       ns0:preamble="/home/harold/texmf/inkscape.tex"
       ns0:text="$\\ang{90}$">
      <defs
         id="defs4247">
        <g
           id="g4249">
          <symbol
             id="textext-96b772eb-0"
             overflow="visible"
             style="overflow:visible">
            <path
               id="path4252"
               d=""
               style="stroke:none"
               inkscape:connector-curvature="0" />
          </symbol>
          <symbol
             id="textext-96b772eb-1"
             overflow="visible"
             style="overflow:visible">
            <path
               id="path4255"
               d="m 4.5625,-3.28125 c 0,-2.6875 -1.15625,-3.359375 -2.046875,-3.359375 -0.546875,0 -1.03125,0.1875 -1.453125,0.625 -0.421875,0.453125 -0.640625,0.875 -0.640625,1.625 0,1.234375 0.875,2.21875 1.984375,2.21875 0.609375,0 1.015625,-0.421875 1.25,-1 l 0,0.328125 c 0,2.328125 -1.03125,2.78125 -1.609375,2.78125 -0.171875,0 -0.71875,-0.015625 -0.984375,-0.359375 0.4375,0 0.515625,-0.28125 0.515625,-0.453125 0,-0.3125 -0.234375,-0.453125 -0.453125,-0.453125 -0.15625,0 -0.453125,0.078125 -0.453125,0.46875 0,0.671875 0.53125,1.078125 1.375,1.078125 1.296875,0 2.515625,-1.359375 2.515625,-3.5 z M 3.640625,-4.203125 c 0,0.828125 -0.34375,1.796875 -1.21875,1.796875 -0.15625,0 -0.625,0 -0.921875,-0.625 -0.1875,-0.375 -0.1875,-0.859375 -0.1875,-1.359375 0,-0.53125 0,-1 0.21875,-1.375 0.265625,-0.5 0.640625,-0.625 0.984375,-0.625 0.46875,0 0.796875,0.34375 0.96875,0.78125 0.109375,0.328125 0.15625,0.953125 0.15625,1.40625 z m 0,0"
               style="stroke:none"
               inkscape:connector-curvature="0" />
          </symbol>
          <symbol
             id="textext-96b772eb-2"
             overflow="visible"
             style="overflow:visible">
            <path
               id="path4258"
               d="m 4.578125,-3.1875 c 0,-0.796875 -0.046875,-1.59375 -0.390625,-2.328125 -0.453125,-0.96875 -1.28125,-1.125 -1.6875,-1.125 -0.609375,0 -1.328125,0.265625 -1.75,1.1875 -0.3125,0.6875 -0.359375,1.46875 -0.359375,2.265625 0,0.75 0.03125,1.640625 0.453125,2.40625 0.421875,0.796875 1.15625,1 1.640625,1 0.53125,0 1.296875,-0.203125 1.734375,-1.15625 0.3125,-0.6875 0.359375,-1.46875 0.359375,-2.25 z m -0.8125,-0.125 c 0,0.75 0,1.421875 -0.109375,2.0625 C 3.5,-0.296875 2.9375,0 2.484375,0 2.09375,0 1.5,-0.25 1.328125,-1.203125 1.21875,-1.796875 1.21875,-2.71875 1.21875,-3.3125 c 0,-0.640625 0,-1.296875 0.078125,-1.828125 0.1875,-1.1875 0.9375,-1.28125 1.1875,-1.28125 0.328125,0 0.984375,0.1875 1.171875,1.171875 0.109375,0.5625 0.109375,1.3125 0.109375,1.9375 z m 0,0"
               style="stroke:none"
               inkscape:connector-curvature="0" />
          </symbol>
          <symbol
             id="textext-96b772eb-3"
             overflow="visible"
             style="overflow:visible">
            <path
               id="path4261"
               d="M 3.25,-5.421875 C 3.25,-6.1875 2.625,-6.8125 1.875,-6.8125 c -0.765625,0 -1.390625,0.625 -1.390625,1.390625 0,0.75 0.625,1.375 1.390625,1.375 0.75,0 1.375,-0.625 1.375,-1.375 z m -0.40625,0 c 0,0.53125 -0.4375,0.96875 -0.96875,0.96875 -0.546875,0 -0.984375,-0.4375 -0.984375,-0.96875 0,-0.546875 0.4375,-0.984375 0.984375,-0.984375 0.53125,0 0.96875,0.4375 0.96875,0.984375 z m 0,0"
               style="stroke:none"
               inkscape:connector-curvature="0" />
          </symbol>
        </g>
      </defs>
      <g
         id="textext-96b772eb-4">
        <g
           id="g4264"
           style="fill:#000000;fill-opacity:1">
          <use
             id="use4266"
             y="134.765"
             x="223.43201"
             xlink:href="#textext-96b772eb-1"
             width="100%"
             height="100%" />
          <use
             id="use4268"
             y="134.765"
             x="228.4133"
             xlink:href="#textext-96b772eb-2"
             width="100%"
             height="100%" />
        </g>
        <g
           id="g4270"
           style="fill:#000000;fill-opacity:1">
          <use
             id="use4272"
             y="134.765"
             x="233.395"
             xlink:href="#textext-96b772eb-3"
             width="100%"
             height="100%" />
        </g>
      </g>
    </g>
    <rect
       style="opacity:0.78125;fill:none;fill-opacity:1;stroke:#000000;stroke-width:1;stroke-miterlimit:4;stroke-dasharray:none;stroke-dashoffset:0;stroke-opacity:1"
       id="rect4156"
       width="19.20904"
       height="19.20904"
       x="74.575623"
       y="116.69145"
       ry="7.4761262" />
  </g>
</svg>
